<svg width="1022" height="428" viewBox="0 0 1022 428" fill="none" xmlns="http://www.w3.org/2000/svg">
<path fill-rule="evenodd" clip-rule="evenodd" d="M0 0H1021.82V12.443H0V0ZM680.381 210.54H630.61V12.4438H620.655V210.54H570.884V12.4438H566.902V210.54H517.129V12.4438H504.686V210.54H454.915V12.4438H450.933V210.54H401.161V12.4438H391.206V210.54H341.435V12.4438H337.453V210.54H287.681V12.4438H283.7V210.54H233.928V12.4438H229.946V210.54H180.174V12.4438H176.192V210.54H126.42V12.4438H122.438V210.54H72.6667V12.4438H60.2238V210.54H6.25455e-05V222.983H60.2238V415.098H72.6667V222.983H122.438V415.098H126.42V222.983H176.192V415.098H180.174V222.983H229.946V415.098H233.928V222.983H283.7V415.098H287.681V222.983H337.453V415.098H341.435V222.983H391.206V415.098H401.161V222.983H450.933V415.098H454.915V222.983H504.686V415.098H517.129V222.983H566.902V415.098H570.884V222.983H620.655V415.098H630.61V222.983H680.381V415.098H684.363V222.983H734.135V415.098H738.117V222.983H787.889V415.098H791.87V222.983H841.643V415.098H845.625V222.983H895.396V415.098H899.378V222.983H949.15V415.098H961.593V222.983H1021.82V210.54H961.593V12.4438H949.15V210.54H899.378V12.4438H895.396V210.54H845.625V12.4438H841.643V210.54H791.87V12.4438H787.889V210.54H738.117V12.4438H734.135V210.54H684.363V12.4438H680.381V210.54ZM6.25455e-05 415.098V427.541H1021.82V415.098H6.25455e-05Z" fill="#41392B"/>
</svg>
