<svg width="1001" height="419" viewBox="0 0 1001 419" fill="none" xmlns="http://www.w3.org/2000/svg">
<path fill-rule="evenodd" clip-rule="evenodd" d="M0 0H1001V12.1895H942.004V206.246H1001V218.436H942.004V406.64H929.814V218.436H881.055V406.64H877.155V218.436H828.398V406.64H824.497V218.436H775.739V406.64H771.838V218.436H723.08V406.64H719.18V218.436H670.421V406.64H666.52V218.436H617.764V406.64H608.012V218.436H559.254V406.64H555.353V218.436H506.595V406.64H494.405V218.436H445.647V406.64H441.747V218.436H392.988V406.64H383.237V218.436H334.48V406.64H330.579V218.436H281.821V406.64H277.92V218.436H229.162V406.64H225.262V218.436H176.504V406.64H172.603V218.436H123.845V406.64H119.944V218.436H71.1867V406.64H58.9973V218.436H0V206.246H58.9973V12.1895H0V0ZM71.1867 12.1895V206.246H119.944V12.1895H71.1867ZM555.353 206.246H506.595V12.1895H555.353V206.246ZM445.647 12.1895H494.405V206.246H445.647V12.1895ZM723.08 206.246H771.838V12.1895H723.08V206.246ZM719.18 12.1895V206.246H670.421V12.1895H719.18ZM441.747 206.246H392.988V12.1895H441.747V206.246ZM334.48 12.1895H383.237V206.246H334.48V12.1895ZM229.162 206.246H277.92V12.1895H229.162V206.246ZM225.262 12.1895V206.246H176.504V12.1895H225.262ZM172.603 206.246H123.845V12.1895H172.603V206.246ZM929.814 206.246H881.055V12.1895H929.814V206.246ZM828.398 12.1895H877.155V206.246H828.398V12.1895ZM775.739 206.246H824.497V12.1895H775.739V206.246ZM666.52 12.1895V206.246H617.764V12.1895H666.52ZM559.254 12.1895H608.012V206.246H559.254V12.1895ZM281.821 12.1895H330.579V206.246H281.821V12.1895ZM1001 406.641H0V418.831H1001V406.641Z" fill="#625C51"/>
</svg>
