<svg width="100" height="83" viewBox="0 0 100 83" fill="none" xmlns="http://www.w3.org/2000/svg">
<path fill-rule="evenodd" clip-rule="evenodd" d="M0 10.1563C0 4.54711 4.54711 0 10.1562 0H89.8438C95.4529 0 100 4.54711 100 10.1563V72.6563C100 78.2654 95.4529 82.8125 89.8438 82.8125H10.1563C4.54711 82.8125 0 78.2654 0 72.6563V10.1563ZM10.1562 4.6875C7.13594 4.6875 4.6875 7.13595 4.6875 10.1563V72.6563C4.6875 75.6766 7.13594 78.125 10.1563 78.125H89.8438C92.8641 78.125 95.3125 75.6766 95.3125 72.6563V10.1563C95.3125 7.13594 92.8641 4.6875 89.8438 4.6875H10.1562Z" fill="#9CA3AF"/>
<circle cx="23.4375" cy="21.8789" r="10.1562" fill="#9CA3AF"/>
<path d="M13.2812 65.6211V59.8843C13.2812 59.0555 13.6105 58.2606 14.1965 57.6746L27.5805 44.2906C28.76 43.1111 30.658 43.0659 31.8923 44.188L36.1073 48.0198C37.329 49.1304 39.2039 49.099 40.3878 47.9481L64.197 24.8002C65.4221 23.6091 67.3768 23.6229 68.5851 24.8312L87.366 43.6121C87.952 44.1981 88.2812 44.993 88.2812 45.8218V65.6211C88.2812 67.347 86.8821 68.7461 85.1562 68.7461H16.4063C14.6804 68.7461 13.2812 67.347 13.2812 65.6211Z" fill="#9CA3AF"/>
</svg>
